<?xml version="1.0" encoding="UTF-8"?>
<svg xmlns="http://www.w3.org/2000/svg" xmlns:xlink="http://www.w3.org/1999/xlink" width="50px" height="50px" viewBox="0 0 50 50" version="1.1">
<g id="surface1">
<path style="fill:none;stroke-width:4;stroke-linecap:round;stroke-linejoin:round;stroke:rgb(0%,68.235294%,93.72549%);stroke-opacity:1;stroke-miterlimit:10;" d="M 98 102 C 98 106.42 94.42 110 90 110 C 85.58 110 82 106.42 82 102 C 82 97.58 85.58 94 90 94 C 94.42 94 98 97.58 98 102 Z M 98 102 " transform="matrix(0.390625,0,0,0.390625,0,0)"/>
<path style="fill:none;stroke-width:4;stroke-linecap:round;stroke-linejoin:round;stroke:rgb(0%,68.235294%,93.72549%);stroke-opacity:1;stroke-miterlimit:10;" d="M 58 102 C 58 106.42 54.42 110 50 110 C 45.58 110 42 106.42 42 102 C 42 97.58 45.58 94 50 94 C 54.42 94 58 97.58 58 102 Z M 58 102 " transform="matrix(0.390625,0,0,0.390625,0,0)"/>
<path style="fill:none;stroke-width:4;stroke-linecap:round;stroke-linejoin:round;stroke:rgb(0%,68.235294%,93.72549%);stroke-opacity:1;stroke-miterlimit:10;" d="M 30 34 L 113.1 34 C 115.9 34 117.8 36.8 116.8 39.4 L 100.9 80.8 C 99.7 84 96.7 86 93.4 86 L 46.6 86 C 42.8 86 39.5 83.3 38.7 79.5 Z M 29.9 34 L 28.4 26.4 C 27.7 22.7 24.4 20 20.6 20 L 13.4 20 M 90.9 46 L 93.9 46 M 33 46 L 81.9 46 " transform="matrix(0.390625,0,0,0.390625,0,0)"/>
</g>
</svg>
